<?xml version="1.0" encoding="UTF-8"?>
<svg id="Layer_1" data-name="Layer 1" xmlns="http://www.w3.org/2000/svg" viewBox="0 0 720 222.41">
  <defs>
    <style>
      .cls-1 {
        fill: #53a346;
      }

      .cls-1, .cls-2, .cls-3, .cls-4 {
        stroke-width: 0px;
      }

      .cls-2 {
        fill: #231f20;
      }

      .cls-3 {
        fill: #fff;
      }

      .cls-4 {
        fill: #f07391;
      }
    </style>
  </defs>
  <g>
    <path class="cls-2" d="m214.94,86.74c-3.95,0-7.56-1-10.83-2.99-3.24-1.99-5.81-4.67-7.71-8.03-1.9-3.36-2.86-7.11-2.86-11.23l.11-34.1c0-4.06.92-7.72,2.77-10.99,1.85-3.31,4.4-5.97,7.66-7.98,3.26-2.01,6.88-3.02,10.86-3.02s7.67.98,10.83,2.94c3.2,1.96,5.75,4.6,7.66,7.93,1.9,3.33,2.85,7.04,2.85,11.13v5.02c0,.29-.14.43-.43.43h-12.28c-.29,0-.43-.14-.43-.43v-5.02c0-2.42-.78-4.5-2.35-6.24s-3.52-2.62-5.87-2.62c-2.6,0-4.59.89-5.98,2.67-1.39,1.78-2.08,3.84-2.08,6.19v34.1c0,2.67.78,4.85,2.35,6.54,1.57,1.69,3.47,2.53,5.71,2.53s4.3-.93,5.87-2.8c1.57-1.87,2.35-3.96,2.35-6.27v-5.07c0-.28.14-.43.43-.43h12.38c.28,0,.43.14.43.43v5.07c0,4.09-.96,7.83-2.88,11.21-1.96,3.34-4.54,6.02-7.74,8.03s-6.81,3.02-10.83,3.02Z"/>
    <path class="cls-2" d="m280.05,85.67h-35.33c-.29,0-.43-.18-.43-.53l.11-74.98c0-.36.18-.53.53-.53h12.17c.36,0,.53.18.53.53l-.11,62.07h22.52c.36,0,.53.18.53.53v12.38c0,.36-.18.53-.53.53Z"/>
    <path class="cls-2" d="m323.44,85.67h-35.33c-.29,0-.43-.18-.43-.53l.11-75.09c0-.28.14-.43.43-.43h35.12c.28,0,.43.18.43.53v12.22c0,.28-.14.43-.43.43h-22.42v17.08h22.42c.28,0,.43.14.43.43l.11,12.38c0,.29-.14.43-.43.43h-22.52v19.11h22.52c.28,0,.43.18.43.53v12.49c0,.29-.14.43-.43.43Z"/>
    <path class="cls-2" d="m329.9,85.14l13.56-75.09c.07-.28.25-.43.53-.43h15.85c.28,0,.46.14.53.43l13.02,75.09c.03.36-.11.53-.43.53h-12.12c-.36,0-.55-.18-.59-.53l-1.17-8.01h-14.89l-1.18,8.01c-.03.36-.21.53-.53.53h-12.17c-.29,0-.43-.18-.43-.53Zm21.4-50.38l-4.91,30.69h10.51l-4.48-30.69-.64-4.06-.48,4.06Z"/>
    <path class="cls-2" d="m392.13,85.67h-10.94c-.57,0-.85-.25-.85-.75l-.11-74.45c0-.57.28-.85.85-.85h9.87l18.47,43.07-.53-42.22c0-.57.32-.85.96-.85h10.83c.43,0,.64.29.64.85l.11,74.56c0,.43-.18.64-.53.64h-9.61l-18.95-40.24.8,39.39c0,.57-.34.85-1.01.85Z"/>
    <path class="cls-2" d="m479.44,86.74c-3.95,0-7.56-1-10.83-2.99-3.24-1.99-5.81-4.67-7.71-8.03-1.9-3.36-2.86-7.11-2.86-11.23l.11-34.1c0-4.06.92-7.72,2.77-10.99,1.85-3.31,4.4-5.97,7.66-7.98,3.26-2.01,6.88-3.02,10.86-3.02s7.67.98,10.83,2.94c3.2,1.96,5.75,4.6,7.66,7.93,1.9,3.33,2.85,7.04,2.85,11.13v5.02c0,.29-.14.43-.43.43h-12.28c-.29,0-.43-.14-.43-.43v-5.02c0-2.42-.78-4.5-2.35-6.24-1.57-1.74-3.52-2.62-5.87-2.62-2.6,0-4.59.89-5.98,2.67-1.39,1.78-2.08,3.84-2.08,6.19v34.1c0,2.67.78,4.85,2.35,6.54,1.57,1.69,3.47,2.53,5.71,2.53s4.3-.93,5.87-2.8c1.57-1.87,2.35-3.96,2.35-6.27v-5.07c0-.28.14-.43.43-.43h12.38c.28,0,.43.14.43.43v5.07c0,4.09-.96,7.83-2.88,11.21-1.96,3.34-4.54,6.02-7.74,8.03-3.2,2.01-6.81,3.02-10.83,3.02Z"/>
    <path class="cls-2" d="m521.6,85.67h-12.38c-.29,0-.43-.18-.43-.53l.21-75.09c0-.28.14-.43.43-.43h22.09c3.95,0,7.58.96,10.89,2.88,3.31,1.92,5.95,4.5,7.93,7.74,1.97,3.24,2.96,6.9,2.96,10.99,0,2.67-.41,5.09-1.23,7.26-.82,2.17-1.77,4-2.86,5.5-1.09,1.49-2.07,2.6-2.96,3.31,3.95,4.38,5.92,9.52,5.92,15.42l.11,22.42c0,.36-.18.53-.53.53h-12.38c-.28,0-.43-.11-.43-.32v-22.63c0-2.63-.93-4.91-2.77-6.83-1.85-1.92-4.13-2.88-6.83-2.88h-7.21l-.11,32.13c0,.36-.14.53-.43.53Zm9.93-62.98h-9.39v17.18h9.39c2.24,0,4.24-.84,6-2.51,1.76-1.67,2.64-3.72,2.64-6.14s-.85-4.31-2.56-6c-1.71-1.69-3.73-2.53-6.08-2.53Z"/>
    <path class="cls-2" d="m580.52,86.74c-3.84,0-7.4-1-10.67-2.99-3.27-1.99-5.88-4.67-7.82-8.03-1.94-3.36-2.91-7.04-2.91-11.02l.21-54.65c0-.28.14-.43.43-.43h12.28c.28,0,.43.14.43.43v54.65c0,2.46.78,4.55,2.35,6.27,1.57,1.73,3.47,2.59,5.71,2.59s4.3-.86,5.87-2.59c1.57-1.73,2.35-3.82,2.35-6.27V10.04c0-.28.14-.43.43-.43h12.28c.28,0,.43.14.43.43l.21,54.65c0,4.02-.96,7.72-2.88,11.1-1.96,3.34-4.56,6-7.79,7.98-3.24,1.97-6.87,2.96-10.89,2.96Z"/>
    <path class="cls-2" d="m623.49,85.67h-12.38c-.29,0-.43-.18-.43-.53l.21-75.09c0-.28.14-.43.43-.43h13.34c.28,0,.53.14.75.43l9.98,14.41,9.93-14.41c.21-.28.48-.43.8-.43h13.4c.32,0,.48.14.48.43l.21,75.09c0,.36-.14.53-.43.53h-12.38c-.29,0-.43-.18-.43-.53l-.11-55.77-11.47,16.65-11.37-16.65-.11,55.77c0,.36-.14.53-.43.53Z"/>
    <path class="cls-2" d="m689.35,85.67h-19.59c-.29,0-.43-.18-.43-.53l.21-75.09c0-.28.14-.43.43-.43h21.03c4.09,0,7.81,1,11.15,2.99,3.27,1.99,5.85,4.63,7.74,7.93,1.89,3.29,2.83,6.86,2.83,10.7,0,3.13-.71,6.05-2.13,8.75-1.42,2.7-3.11,4.89-5.07,6.56,2.1,2.1,3.74,4.54,4.91,7.31,1.18,2.78,1.76,5.69,1.76,8.75,0,4.23-1.01,8.09-3.04,11.58-2.06,3.49-4.82,6.27-8.27,8.35-3.45,2.08-7.29,3.12-11.53,3.12Zm0-32.66h-6.67l-.11,19.32h6.78c2.63,0,4.89-.96,6.78-2.88,1.89-1.92,2.83-4.2,2.83-6.83s-.94-4.89-2.83-6.78c-1.89-1.89-4.14-2.83-6.78-2.83Zm1.65-30.42h-8.33v17.18h8.33c2.52,0,4.57-.9,6.14-2.69,1.57-1.8,2.35-3.74,2.35-5.84,0-2.31-.84-4.33-2.51-6.06-1.67-1.73-3.67-2.59-5.98-2.59Z"/>
  </g>
  <g>
    <path class="cls-2" d="m222.15,214.45c-5.34,0-10.22-1.35-14.64-4.04-4.38-2.69-7.85-6.31-10.42-10.86-2.57-4.54-3.86-9.61-3.86-15.19l.14-46.1c0-5.48,1.25-10.44,3.75-14.86,2.5-4.47,5.95-8.07,10.35-10.78,4.4-2.72,9.29-4.08,14.68-4.08s10.36,1.32,14.64,3.97c4.33,2.65,7.78,6.22,10.35,10.71,2.57,4.5,3.86,9.51,3.86,15.04v6.78c0,.39-.19.58-.58.58h-16.59c-.38,0-.58-.19-.58-.58v-6.78c0-3.27-1.06-6.08-3.17-8.44-2.12-2.36-4.76-3.54-7.93-3.54-3.51,0-6.2,1.2-8.08,3.61-1.88,2.41-2.81,5.19-2.81,8.37v46.1c0,3.61,1.06,6.55,3.17,8.84,2.12,2.29,4.69,3.43,7.72,3.43s5.82-1.26,7.93-3.79c2.12-2.52,3.17-5.35,3.17-8.48v-6.85c0-.38.19-.58.58-.58h16.74c.38,0,.58.19.58.58v6.85c0,5.53-1.3,10.58-3.9,15.15-2.65,4.52-6.13,8.14-10.46,10.86-4.33,2.72-9.21,4.08-14.64,4.08Z"/>
    <path class="cls-2" d="m289.03,214.45c-5.19,0-10-1.35-14.43-4.04-4.42-2.69-7.95-6.31-10.57-10.86-2.62-4.54-3.93-9.51-3.93-14.9l.29-73.87c0-.38.19-.58.58-.58h16.59c.38,0,.58.19.58.58v73.87c0,3.32,1.06,6.14,3.17,8.48,2.12,2.33,4.69,3.5,7.72,3.5s5.82-1.17,7.93-3.5c2.12-2.33,3.17-5.16,3.17-8.48v-73.87c0-.38.19-.58.58-.58h16.59c.38,0,.58.19.58.58l.29,73.87c0,5.44-1.3,10.44-3.9,15.01-2.65,4.52-6.16,8.12-10.53,10.78-4.38,2.67-9.28,4-14.72,4Z"/>
    <path class="cls-2" d="m347.1,213.01h-16.59c-.48,0-.72-.24-.72-.72l.29-101.5c0-.38.19-.58.58-.58h28.42c9.04,0,16.19,2.75,21.46,8.26,5.27,5.51,7.9,13,7.9,22.47,0,6.93-1.37,12.96-4.11,18.11-2.79,5.1-6.4,9.04-10.82,11.83-4.43,2.79-9.23,4.18-14.43,4.18h-11.25v37.22c0,.48-.24.72-.72.72Zm11.98-85.27l-11.25.14v29.29h11.25c3.12,0,5.84-1.5,8.15-4.51,2.31-3,3.46-6.91,3.46-11.72,0-3.85-1.03-7.01-3.1-9.49-2.07-2.48-4.91-3.72-8.51-3.72Z"/>
    <path class="cls-2" d="m424.43,214.45c-5.34,0-10.22-1.35-14.64-4.04-4.38-2.69-7.85-6.31-10.42-10.86-2.57-4.54-3.86-9.61-3.86-15.19l.14-46.1c0-5.48,1.25-10.44,3.75-14.86,2.5-4.47,5.95-8.07,10.35-10.78,4.4-2.72,9.29-4.08,14.68-4.08s10.36,1.32,14.64,3.97c4.33,2.65,7.78,6.22,10.35,10.71,2.57,4.5,3.86,9.51,3.86,15.04v6.78c0,.39-.19.58-.58.58h-16.59c-.38,0-.58-.19-.58-.58v-6.78c0-3.27-1.06-6.08-3.17-8.44-2.12-2.36-4.76-3.54-7.93-3.54-3.51,0-6.2,1.2-8.08,3.61-1.88,2.41-2.81,5.19-2.81,8.37v46.1c0,3.61,1.06,6.55,3.17,8.84,2.12,2.29,4.69,3.43,7.72,3.43s5.82-1.26,7.93-3.79,3.17-5.35,3.17-8.48v-6.85c0-.38.19-.58.58-.58h16.74c.38,0,.58.19.58.58v6.85c0,5.53-1.3,10.58-3.9,15.15-2.65,4.52-6.13,8.14-10.46,10.86-4.33,2.72-9.21,4.08-14.64,4.08Z"/>
    <path class="cls-2" d="m459.13,212.28l18.32-101.5c.1-.38.34-.58.72-.58h21.42c.38,0,.62.19.72.58l17.6,101.5c.05.48-.15.72-.58.72h-16.38c-.48,0-.75-.24-.79-.72l-1.59-10.82h-20.13l-1.59,10.82c-.05.48-.29.72-.72.72h-16.45c-.38,0-.58-.24-.58-.72Zm28.93-68.1l-6.64,41.48h14.21l-6.06-41.48-.87-5.48-.65,5.48Z"/>
    <path class="cls-2" d="m544.47,213.01h-16.74c-.39,0-.58-.24-.58-.72l.29-101.36c0-.48.19-.72.58-.72h16.59c.38,0,.58.24.58.72v34.99l23.16-35.13c.38-.38.75-.58,1.08-.58h16.95c.43,0,.53.19.29.58l-25.54,40.76,28.64,60.89c.24.39,0,.58-.72.58h-18.04c-.48,0-.77-.19-.87-.58l-19.98-43.43-5.12,8.08v35.2c0,.48-.19.72-.58.72Z"/>
    <path class="cls-2" d="m644.75,213.01h-47.76c-.39,0-.58-.24-.58-.72l.15-101.5c0-.38.19-.58.58-.58h47.47c.38,0,.58.24.58.72v16.52c0,.39-.19.58-.58.58h-30.3v23.09h30.3c.38,0,.58.19.58.58l.14,16.74c0,.39-.19.58-.58.58h-30.44v25.83h30.44c.38,0,.58.24.58.72v16.88c0,.39-.19.58-.58.58Z"/>
    <path class="cls-2" d="m683.56,214.45c-5.24,0-10.08-1.35-14.5-4.04-4.38-2.69-7.88-6.29-10.5-10.78-2.62-4.5-3.93-9.44-3.93-14.82v-6.78c0-.53.24-.79.72-.79h16.59c.38,0,.58.26.58.79v6.78c0,3.22,1.08,6,3.25,8.33,2.16,2.33,4.76,3.5,7.79,3.5s5.7-1.19,7.86-3.57c2.16-2.38,3.25-5.13,3.25-8.26,0-3.61-2.36-6.76-7.07-9.45-.77-.48-1.77-1.07-2.99-1.77-1.23-.7-2.68-1.5-4.37-2.42-1.68-.91-3.32-1.82-4.9-2.71-1.59-.89-3.13-1.74-4.62-2.56-5.39-3.17-9.39-7.15-12.01-11.94-2.62-4.79-3.93-10.16-3.93-16.12,0-5.48,1.35-10.44,4.04-14.86,2.69-4.38,6.21-7.85,10.57-10.42,4.35-2.57,9.08-3.86,14.18-3.86s10.05,1.3,14.43,3.9c4.38,2.65,7.88,6.16,10.5,10.53,2.62,4.38,3.93,9.28,3.93,14.72v12.12c0,.38-.19.58-.58.58h-16.59c-.38,0-.58-.19-.58-.58l-.14-12.12c0-3.46-1.08-6.28-3.25-8.44-2.16-2.16-4.74-3.25-7.72-3.25s-5.63,1.15-7.79,3.46c-2.16,2.31-3.25,5.05-3.25,8.22s.69,5.92,2.06,8.08c1.37,2.16,3.88,4.23,7.54,6.2.38.19,1.27.67,2.67,1.44,1.39.77,2.94,1.62,4.65,2.56,1.71.94,3.26,1.78,4.65,2.52,1.39.75,2.24,1.19,2.52,1.34,4.91,2.74,8.79,6.11,11.65,10.1,2.86,3.99,4.29,8.9,4.29,14.72s-1.3,10.68-3.89,15.15c-2.65,4.47-6.16,8.01-10.53,10.6-4.38,2.6-9.23,3.9-14.57,3.9Z"/>
  </g>
  <g>
    <g>
      <path class="cls-4" d="m88.6,214.64c-.53,0-1.06,0-1.59-.02-13.06-.33-24.89-2.23-36.18-5.81-7.57-2.4-14.13-5.16-20.05-8.41-1.51-.83-2.57-2.3-2.9-4.03-2.72-14.1-5.47-28.19-8.22-42.29-.4-2.03-.81-4.05-1.23-6.08-.84-4.08-1.7-8.3-2.4-12.48-.26-1.59-.97-2.49-2.27-3.68-3.97-3.64-6.2-8.56-6.63-14.6-.17-2.47-.14-4.59.11-6.48.66-5.06,3.6-9.12,8.97-12.41,1.45-.89,2.98-1.65,4.47-2.4.4-.2.8-.4,1.2-.6-2.75-6.74-2.6-13.54.43-20.21,2.73-6.01,7.73-10.05,15.71-12.67,0-.66-.03-1.31-.05-1.96-.06-1.93-.12-3.92.12-5.87.87-7.02,4.88-12.42,11.92-16.04,3.91-2.01,8.03-3.29,12.27-4.54,2.24-.66,10.61-3.29,16.72-5.21,2.83-.89,5.13-1.61,6.04-1.9,6.46-2,11.87-5.93,16.56-12.02l.21-.28c.31-.41.63-.82,1-1.22.66-.7,1.72-1.63,3.19-1.63.44,0,.9.09,1.36.26,1.91.71,2.79,1.98,2.86,4.1.02.72.04,1.45.06,2.17.05,1.98.11,4.04.27,6.03.47,5.66,3.13,9.62,8.14,12.12l1.17.58c3.41,1.7,6.94,3.46,10.28,5.45,5.08,3.03,8.23,7.07,9.36,12.02.41,1.8.55,3.67.69,5.47.04.6.09,1.19.14,1.79,7.47,2.22,13.26,6.91,15.95,12.94,2.49,5.58,2.25,11.87-.69,18.23.36.18.71.35,1.07.53,1.43.7,2.91,1.42,4.3,2.28,6.21,3.84,9.56,9.82,9.97,17.75.36,7.13-2.27,13.1-7.83,17.74-.52.43-.83,1.02-.89,1.65-.25,2.78-.65,5.6-1.19,8.36-1.76,9.07-3.55,18.13-5.34,27.19-.89,4.53-1.79,9.05-2.68,13.58-.97,4.94-1.92,9.89-2.87,14.83-.36,1.87-1.69,2.83-2.66,3.4-4.16,2.42-8.81,4.54-14.21,6.48-11.55,4.16-23.09,6.65-34.29,7.38l-1.21.08c-3,.2-6.1.41-9.16.41Z"/>
      <path class="cls-3" d="m106,12.81c.32,0,.65.06,1.01.19,1.52.57,2.16,1.49,2.21,3.19.09,2.75.11,5.51.34,8.25.49,5.89,3.32,10.25,8.69,12.93,3.84,1.92,7.7,3.8,11.39,6,4.38,2.61,7.73,6.26,8.89,11.39.57,2.52.6,5.16.87,7.82,13.99,3.83,22.14,16.34,14.87,30.86,2.06,1.06,4.21,1.99,6.17,3.21,6.27,3.88,9.13,9.71,9.49,16.95.35,6.95-2.22,12.54-7.48,16.92-.7.59-1.16,1.41-1.25,2.32-.25,2.77-.65,5.53-1.18,8.26-2.64,13.6-5.34,27.18-8.01,40.77-.97,4.94-1.93,9.89-2.87,14.84-.25,1.33-1.12,2.1-2.18,2.72-4.46,2.59-9.2,4.66-14.05,6.41-11.04,3.98-22.35,6.56-34.01,7.32-3.43.23-6.87.49-10.31.49-.52,0-1.04,0-1.56-.02-12.22-.31-24.22-2.06-35.91-5.77-6.88-2.18-13.53-4.85-19.87-8.33-1.26-.69-2.13-1.93-2.4-3.34-2.72-14.1-5.47-28.2-8.22-42.29-1.21-6.18-2.59-12.32-3.62-18.53-.32-1.94-1.25-3.03-2.58-4.25-4.06-3.72-5.93-8.53-6.31-13.93-.15-2.08-.17-4.22.1-6.28.71-5.39,4.08-8.98,8.5-11.69,2.05-1.26,4.26-2.26,6.43-3.39-2.99-6.73-3-13.55.05-20.26,3.12-6.86,9.07-10.26,15.8-12.36,0-2.9-.28-5.7.05-8.43.89-7.18,5.1-12.04,11.39-15.27,3.86-1.98,7.96-3.25,12.09-4.47,3.3-.97,19.92-6.23,22.77-7.11,7.1-2.19,12.59-6.56,17.06-12.37.37-.48.73-.98,1.14-1.42.71-.75,1.49-1.32,2.46-1.32m0-2h0c-2.07,0-3.46,1.46-3.91,1.94-.41.43-.75.88-1.07,1.31l-.2.27c-4.55,5.92-9.81,9.74-16.06,11.67-.92.28-3.26,1.02-6.13,1.92-6.08,1.91-14.4,4.53-16.62,5.18-4.28,1.26-8.45,2.55-12.44,4.61-7.35,3.78-11.55,9.44-12.46,16.81-.25,2.02-.19,4.05-.13,6.02.01.4.03.81.04,1.21-5.31,1.82-12.07,5.2-15.61,12.98-3.02,6.65-3.28,13.42-.78,20.14-.13.06-.26.13-.39.19-1.5.75-3.06,1.53-4.54,2.44-5.64,3.46-8.73,7.76-9.44,13.14-.26,1.96-.29,4.14-.12,6.68.44,6.31,2.78,11.44,6.95,15.27,1.15,1.06,1.74,1.79,1.96,3.1.69,4.21,1.56,8.43,2.4,12.52.41,2.02.83,4.04,1.23,6.07,3.02,15.46,5.71,29.29,8.22,42.28.39,2.02,1.63,3.74,3.4,4.72,5.98,3.29,12.59,6.06,20.22,8.49,11.38,3.61,23.31,5.53,36.46,5.86.54.01,1.07.02,1.61.02,3.09,0,6.21-.21,9.22-.41l1.22-.08c11.29-.74,22.92-3.24,34.56-7.44,5.46-1.97,10.16-4.11,14.38-6.56,1.14-.66,2.71-1.81,3.14-4.08,1.03-5.42,1.97-10.27,2.87-14.83.89-4.54,1.79-9.07,2.68-13.61,1.76-8.9,3.57-18.1,5.33-27.16.54-2.8.95-5.65,1.21-8.46.03-.36.22-.71.54-.97,5.81-4.85,8.57-11.09,8.19-18.56-.42-8.28-3.93-14.52-10.44-18.55-1.43-.89-2.93-1.62-4.39-2.33-.07-.03-.14-.07-.21-.1,2.68-6.33,2.79-12.58.3-18.17-2.73-6.13-8.49-10.92-15.93-13.29-.03-.37-.06-.75-.09-1.11-.14-1.84-.28-3.75-.71-5.62-1.19-5.23-4.5-9.49-9.82-12.66-3.37-2.01-6.92-3.77-10.34-5.48l-1.17-.58c-4.66-2.33-7.14-6.03-7.59-11.31-.16-1.96-.22-4-.27-5.97-.02-.73-.04-1.45-.06-2.18-.08-2.52-1.23-4.15-3.51-5-.57-.21-1.14-.32-1.71-.32h0Z"/>
    </g>
    <path class="cls-3" d="m53.36,76.19c-.29-.29-.74.06-.5.4,5.85,8.54,26.16,29.65,70.49,20.97.3-.06.28-.49-.03-.53-9.24-1.15-49.14.19-69.95-20.85Z"/>
    <path class="cls-3" d="m80.75,205.64c.07.71,1.87,1.96,2.56,2.13,3.67.91,8.55.61,11.66.19.77-.1,2.84-2,2.89-2.78l2.68-55.64c.05-.71-.13-1.43-.54-2.01-6.09-8.47-15.11-9.82-22.43-.35-.47.61-.68,1.4-.61,2.17l3.79,56.28Z"/>
    <path class="cls-3" d="m152.53,135.03c-8.26-5.55-13.6,6.5-14.31,8.22-.05.13-.09.26-.12.39l-10.9,54.88c-.28,1.39.89,2.67,2.3,2.47,2.62-.36,8.32-4.07,10.23-5.34.41-.27.69-.69.8-1.16l12.88-57.26c.19-.84-.16-1.72-.87-2.2Z"/>
    <path class="cls-3" d="m127.65,142.86c-7.1-7.34-14.51-.21-16.91,2.54-.52.59-.83,1.33-.9,2.11l-5.03,54.23c-.22,2.4,1.86,4.39,4.25,4.04s5.23-1,7.47-1.7c1.33-.41,2.31-1.55,2.55-2.92l9.53-55.09c.2-1.16-.14-2.36-.96-3.21Z"/>
    <g>
      <path class="cls-1" d="m101.03,79.11c-8.15-2.7-18.79-4.77-18.9-4.79l-.76-.15-.05-.77c-.05-.77-1.06-19.06,13.6-32.2,4.89-4.38,11.22-7.09,17.82-7.64,5.21-.43,13.94-2.29,22.83-6.23.53-.23,1.09-.35,1.66-.35,2.01,0,3.71,1.44,4.05,3.42.11.67,2.67,16.66-9.8,33.75-6.78,9.31-28.97,14.76-29.91,14.99l-.28.07-.27-.09Z"/>
      <path class="cls-3" d="m137.25,27.97c1.45,0,2.8,1.03,3.06,2.58h0c.11.66,2.6,16.24-9.62,33-6.65,9.12-29.34,14.61-29.34,14.61-8.31-2.75-19.02-4.83-19.02-4.83-.05-.75-1.03-18.58,13.27-31.39,4.73-4.24,10.85-6.86,17.23-7.38,5.29-.44,14.15-2.32,23.16-6.32h0c.41-.18.84-.27,1.26-.27m0-2c-.71,0-1.41.15-2.07.44-8.78,3.89-17.38,5.73-22.51,6.15-6.82.56-13.35,3.36-18.41,7.89-15.01,13.45-13.98,32.22-13.93,33.01l.1,1.54,1.52.29c.11.02,10.69,2.09,18.77,4.76l.54.18.56-.13c.96-.23,23.49-5.77,30.48-15.37,12.71-17.44,10.09-33.82,9.98-34.51-.42-2.46-2.54-4.25-5.03-4.25h0Z"/>
    </g>
    <path class="cls-3" d="m104.81,56.56c-6.59,4.38-8.63,6.36-12.94,12.42-.35.5-1.06.07-.78-.48,3.16-6.32,9.34-16,18.57-18.83,8.6-2.63,16.6-8.11,21.51-11.96.47-.37.99.28.59.73-4.75,5.22-10.39,10.52-17.19,13.85"/>
    <path class="cls-3" d="m34.95,101.71c-.37-.36-.95.07-.65.49,7.52,10.47,33.58,36.34,90.5,25.71.39-.07.36-.63-.04-.64-11.54-.51-62.81,1.03-89.81-25.55Z"/>
    <path class="cls-3" d="m49.52,143.22c7.1-7.34,14.51-.21,16.91,2.54.52.59.83,1.33.9,2.11l5.03,54.23c.22,2.4-1.86,4.39-4.25,4.04-2.43-.36-5.23-1-7.47-1.7-1.33-.41-2.31-1.55-2.55-2.92l-9.53-55.09c-.2-1.16.14-2.36.96-3.21Z"/>
    <path class="cls-3" d="m25.3,136.04c8.26-5.55,13.6,6.5,14.31,8.22.05.13.09.26.12.39l10.9,54.88c.28,1.39-.89,2.67-2.3,2.47-2.62-.36-8.32-4.07-10.23-5.34-.41-.27-.69-.69-.8-1.16l-12.88-57.26c-.19-.84.16-1.72.87-2.2Z"/>
  </g>
</svg>