<?xml version="1.0" encoding="utf-8"?>
<!-- Generator: Adobe Illustrator 27.4.0, SVG Export Plug-In . SVG Version: 6.00 Build 0)  -->
<svg version="1.1" id="Layer_1" xmlns:serif="http://www.serif.com/"
	 xmlns="http://www.w3.org/2000/svg" xmlns:xlink="http://www.w3.org/1999/xlink" x="0px" y="0px" viewBox="0 0 612 792"
	 style="enable-background:new 0 0 612 792;" xml:space="preserve">
<style type="text/css">
	.st0{fill-rule:evenodd;clip-rule:evenodd;fill:#E6E7E8;}
</style>
<path class="st0" d="M537.2,90c41.3,0,74.8,33.5,74.8,74.8v462.5c0,41.3-33.5,74.8-74.8,74.8H410V471.4h79.6l15.1-98.8H410v-64.1
	c0-27,13.2-53.4,55.7-53.4h43.1v-84.1c0,0-39.1-6.7-76.5-6.7c-78,0-129,47.3-129,132.9v75.3h-86.7v98.8h86.7V702H74.8
	C33.5,702,0,668.5,0,627.2V164.8C0,123.5,33.5,90,74.8,90L537.2,90L537.2,90z"/>
</svg>
