<?xml version="1.0" encoding="utf-8"?>
<!-- Generator: Adobe Illustrator 27.4.0, SVG Export Plug-In . SVG Version: 6.00 Build 0)  -->
<svg version="1.1" id="Layer_1" xmlns:serif="http://www.serif.com/"
	 xmlns="http://www.w3.org/2000/svg" xmlns:xlink="http://www.w3.org/1999/xlink" x="0px" y="0px" viewBox="0 0 612 792"
	 style="enable-background:new 0 0 612 792;" xml:space="preserve">
<style type="text/css">
	.st0{fill-rule:evenodd;clip-rule:evenodd;fill:#E6E6E8;}
</style>
<path class="st0" d="M537.2,90c41.3,0,74.8,33.5,74.8,74.8v462.5c0,41.3-33.5,74.8-74.8,74.8H74.8C33.5,702,0,668.5,0,627.2V164.8
	C0,123.5,33.5,90,74.8,90L537.2,90L537.2,90z M306,186.8c-56.8,0-63.9,0.2-86.2,1.3c-22.3,1-37.5,4.6-50.8,9.7
	c-13.8,5.3-25.4,12.5-37,24.1c-11.6,11.6-18.8,23.3-24.1,37c-5.2,13.3-8.7,28.5-9.7,50.8c-1,22.3-1.3,29.4-1.3,86.2
	s0.2,63.9,1.3,86.2c1,22.3,4.6,37.5,9.7,50.8c5.3,13.8,12.5,25.4,24.1,37s23.3,18.8,37,24.1c13.3,5.2,28.5,8.7,50.8,9.7
	c22.3,1,29.4,1.3,86.2,1.3s63.9-0.2,86.2-1.3c22.3-1,37.5-4.6,50.8-9.7c13.8-5.3,25.4-12.5,37-24.1c11.6-11.6,18.8-23.3,24.1-37
	c5.2-13.3,8.7-28.5,9.7-50.8c1-22.3,1.3-29.4,1.3-86.2s-0.2-63.9-1.3-86.2c-1-22.3-4.6-37.5-9.7-50.8c-5.3-13.8-12.5-25.4-24.1-37
	c-11.6-11.6-23.3-18.8-37-24.1c-13.3-5.2-28.5-8.7-50.8-9.7C369.9,187.1,362.8,186.8,306,186.8z M306,224.5
	c55.9,0,62.5,0.2,84.5,1.2c20.4,0.9,31.5,4.3,38.8,7.2c9.8,3.8,16.7,8.3,24.1,15.6c7.3,7.3,11.9,14.3,15.6,24.1
	c2.9,7.4,6.3,18.4,7.2,38.8c1,22.1,1.2,28.7,1.2,84.5c0,55.9-0.2,62.5-1.2,84.5c-0.9,20.4-4.3,31.5-7.2,38.8
	c-3.8,9.8-8.3,16.7-15.6,24.1c-7.3,7.3-14.3,11.9-24.1,15.6c-7.4,2.9-18.4,6.3-38.8,7.2c-22.1,1-28.7,1.2-84.5,1.2
	s-62.5-0.2-84.5-1.2c-20.4-0.9-31.5-4.3-38.8-7.2c-9.8-3.8-16.7-8.3-24.1-15.6c-7.3-7.3-11.9-14.3-15.6-24.1
	c-2.9-7.4-6.3-18.4-7.2-38.8c-1-22.1-1.2-28.7-1.2-84.5s0.2-62.5,1.2-84.5c0.9-20.4,4.3-31.5,7.2-38.8c3.8-9.8,8.3-16.7,15.6-24.1
	c7.3-7.3,14.3-11.9,24.1-15.6c7.4-2.9,18.4-6.3,38.8-7.2C243.5,224.7,250.1,224.5,306,224.5L306,224.5z M306,288.6
	c-59.3,0-107.4,48.1-107.4,107.4S246.7,503.4,306,503.4S413.4,455.3,413.4,396S365.3,288.6,306,288.6L306,288.6z M306,465.7
	c-38.5,0-69.7-31.2-69.7-69.7s31.2-69.7,69.7-69.7s69.7,31.2,69.7,69.7S344.5,465.7,306,465.7z M442.8,284.3
	c0,13.9-11.2,25.1-25.1,25.1c-13.9,0-25.1-11.2-25.1-25.1s11.2-25.1,25.1-25.1C431.5,259.2,442.8,270.5,442.8,284.3L442.8,284.3z"/>
</svg>
