<?xml version="1.0" encoding="utf-8"?>
<!-- Generator: Adobe Illustrator 27.4.0, SVG Export Plug-In . SVG Version: 6.00 Build 0)  -->
<svg version="1.1" id="Layer_1" xmlns:serif="http://www.serif.com/"
	 xmlns="http://www.w3.org/2000/svg" xmlns:xlink="http://www.w3.org/1999/xlink" x="0px" y="0px" viewBox="0 0 612 792"
	 style="enable-background:new 0 0 612 792;" xml:space="preserve">
<style type="text/css">
	.st0{fill-rule:evenodd;clip-rule:evenodd;fill:#E6E7E8;}
</style>
<path class="st0" d="M537.2,90c41.3,0,74.8,33.5,74.8,74.8v462.5c0,41.3-33.5,74.8-74.8,74.8H74.8C33.5,702,0,668.5,0,627.2V164.8
	C0,123.5,33.5,90,74.8,90L537.2,90L537.2,90z M233.7,597.5c162.5,0,251.3-134.6,251.3-251.3c0-3.8,0-7.7-0.2-11.4
	c17.2-12.5,32.2-28,44.1-45.8c-15.8,7-32.8,11.7-50.7,13.9c18.3-11,32.2-28.2,38.8-48.9c-17,10.1-35.9,17.4-56.1,21.4
	c-16.1-17.2-39-27.8-64.5-27.8c-48.7,0-88.3,39.6-88.3,88.3c0,7,0.7,13.7,2.4,20.2c-73.5-3.7-138.5-38.8-182.1-92.3
	c-7.5,13-11.9,28.2-11.9,44.3c0,30.6,15.6,57.7,39.4,73.5c-14.5-0.4-28-4.4-39.9-11v1.1c0,42.9,30.4,78.4,70.9,86.6
	c-7.3,2-15.2,3.1-23.3,3.1c-5.7,0-11.2-0.5-16.7-1.6c11.2,35.2,43.8,60.6,82.4,61.4c-30.2,23.6-68.3,37.7-109.7,37.7
	c-7.1,0-14.1-0.4-21.1-1.3C137.3,582.8,183.9,597.5,233.7,597.5L233.7,597.5z"/>
</svg>
