<?xml version="1.0" encoding="utf-8"?>
<!-- Generator: Adobe Illustrator 27.4.0, SVG Export Plug-In . SVG Version: 6.00 Build 0)  -->
<svg version="1.1" id="Layer_1" xmlns:serif="http://www.serif.com/"
	 xmlns="http://www.w3.org/2000/svg" xmlns:xlink="http://www.w3.org/1999/xlink" x="0px" y="0px" viewBox="0 0 612 792"
	 style="enable-background:new 0 0 612 792;" xml:space="preserve">
<style type="text/css">
	.st0{fill-rule:evenodd;clip-rule:evenodd;fill:#E6E7E8;}
</style>
<path class="st0" d="M537.2,90c41.3,0,74.8,33.5,74.8,74.8v462.5c0,41.3-33.5,74.8-74.8,74.8H74.8C33.5,702,0,668.5,0,627.2V164.8
	C0,123.5,33.5,90,74.8,90L537.2,90L537.2,90z M512.2,299.9c-4.9-18.5-19.5-33.1-38-38c-33.6-9-168.1-9-168.1-9s-134.6,0-168.1,9
	c-18.5,4.9-33.1,19.5-38,38c-9,33.6-9,103.6-9,103.6s0,70,9,103.6c4.9,18.5,19.5,33.1,38,38c33.6,9,168.1,9,168.1,9s134.6,0,168.1-9
	c18.5-4.9,33.1-19.5,38-38c9-33.6,9-103.6,9-103.6S521.2,333.5,512.2,299.9z M263,468.1V339l111.8,64.5L263,468.1L263,468.1z"/>
</svg>
